<svg xmlns="http://www.w3.org/2000/svg" viewBox="0 0 64 64" width="64" height="64">
  <defs>
    <radialGradient id="galaxy-bg" cx="50%" cy="50%" r="50%">
      <stop offset="0%" style="stop-color:#ffeb3b;stop-opacity:1" />
      <stop offset="100%" style="stop-color:#f44336;stop-opacity:0.6" />
    </radialGradient>
    <radialGradient id="center-glow" cx="50%" cy="50%" r="50%">
      <stop offset="0%" style="stop-color:#ffffff;stop-opacity:1" />
      <stop offset="100%" style="stop-color:#ffeb3b;stop-opacity:0.3" />
    </radialGradient>
  </defs>
  <circle cx="32" cy="32" r="30" fill="url(#galaxy-bg)" />

  <circle cx="32" cy="32" r="6" fill="url(#center-glow)" />

  <path
    d="M16 24 Q32 10 48 24 T32 44 T16 24"
    fill="none"
    stroke="#ffffff"
    stroke-width="1.5"
    stroke-linecap="round"
    opacity="0.8"
  />
  <path
    d="M20 28 Q32 16 44 28 T32 48 T20 28"
    fill="none"
    stroke="#ffffff"
    stroke-width="1.5"
    stroke-linecap="round"
    opacity="0.6"
  />
  <path
    d="M24 32 Q32 22 40 32 T32 52 T24 32"
    fill="none"
    stroke="#ffffff"
    stroke-width="1.5"
    stroke-linecap="round"
    opacity="0.4"
  />

  <circle cx="20" cy="28" r="2" fill="#ffffff" />
  <circle cx="44" cy="28" r="2" fill="#ffffff" />
  <circle cx="32" cy="48" r="2" fill="#ffffff" />

  <circle cx="10" cy="12" r="1" fill="#ffffff" />
  <circle cx="56" cy="16" r="1.5" fill="#ffffff" />
  <circle cx="12" cy="54" r="1.5" fill="#ffffff" />
  <circle cx="50" cy="50" r="1" fill="#ffffff" />
</svg>
